<svg xmlns="http://www.w3.org/2000/svg" xmlns:xlink="http://www.w3.org/1999/xlink" width="192" height="160" viewBox="0 0 192 160" fill="none">
<path d="M0 0L48 0L48 16L32 16L32 64L16 64L16 16L0 16L0 0ZM64 0L80 0L80 16L96 16L96 32L80 32L80 64L64 64L64 0ZM96 32L112 32L112 0L128 0L128 64L112 64L112 48L96 48L96 32ZM144 0L192 0L192 16L176 16L176 64L160 64L160 16L144 16L144 0ZM16 96L32 96L32 112L48 112L48 128L32 128L32 160L16 160L16 96ZM64 128L64 144L48 144L48 128L64 128ZM64 128L64 112L80 112L80 96L96 96L96 160L80 160L80 128L64 128ZM112 96L176 96L176 112L128 112L128 144L176 144L176 160L112 160L112 96Z" fill-rule="evenodd"  fill="#DB2818" >
</path>
</svg>
